PathFileType	4	(X/Y/Z)	OpenSim_Sub06_EMGBaseline_Accel.trc
DataRate	CameraRate	NumFrames	NumMarkers	Units	OrigDataRate	OrigDataStartFrame	OrigNumFrames
100	100	20	8	m	100	1034	8270
Frame#	Time	torso_imu_offset_imu	pelvis_imu_offset_imu	tibia_r_imu_offset_imu	femur_r_imu_offset_imu	tibia_l_imu_offset_imu	femur_l_imu_offset_imu	toes_r_imu_offset_imu	toes_l_imu_offset_imu
				X1	Y1	Z1	X2	Y2	Z2	X3	Y3	Z3	X4	Y4	Z4	X5	Y5	Z5	X6	Y6	Z6	X7	Y7	Z7	X8		Y8	Z8	

1034	10.33000000	13.73008141	-0.00680708	7.23337367	12.04227028	-1.33756060	8.18190135	13.74069710	0.30458145	3.69545046	11.61517239	-4.71435896	-0.59129015	21.64902679	8.82552841	9.83804674	20.85739758	6.01638842	-2.74333423	5.52926228	-4.03850526	10.62052366	6.87422502	15.00985064	34.40543405
1035	10.34000000	13.36054178	0.30966390	7.22976694	14.20676438	-3.16201943	7.56977283	15.14367772	-0.63858515	4.27085713	11.71401803	-4.18187785	-0.70188622	17.73817959	8.66731439	9.99416991	14.65414817	5.50146607	-2.34004195	5.90781168	-4.58148984	10.84191195	5.15513238	0.87885537	12.81761948
1036	10.35000000	12.04173438	0.54853159	7.04737682	14.65851316	-3.87310631	7.19453001	15.73428730	-1.41876768	4.09013937	11.27871482	-3.45287299	0.02060213	10.06662604	3.27753830	7.52399748	9.36597948	1.49768639	-1.01363875	5.60477142	-5.03163687	11.05857427	7.18275591	-7.92764823	5.35188353
1037	10.36000000	10.92769605	0.38072088	6.57640594	11.75388053	-2.25747531	6.63317137	15.46458896	-1.97698486	3.06991184	11.52162304	-2.39139431	0.55792357	4.97169223	-2.34504121	0.75964619	7.47491151	-0.80186864	-0.80674630	5.62460383	-4.54278607	11.12499663	5.84690033	2.96041619	13.24938909
1038	10.37000000	10.66886392	0.37074111	6.01881328	9.77068472	0.31916197	5.91474998	14.73753012	-1.63780183	1.65187972	12.43513394	-1.34421368	0.35515550	2.21805349	-4.84274428	-5.20101115	6.67132286	-1.82357685	-1.55433786	5.62991556	-3.52301538	11.57175609	5.61864074	-0.12527404	10.16601805
1039	10.38000000	10.55350668	0.37629636	5.64621743	9.09223473	1.42123438	5.82102232	13.54484461	0.27285587	1.36374047	12.73705922	-0.41219657	0.04935874	3.39029118	-6.70292325	-6.48549258	7.06763867	-2.30137395	-2.87135565	6.60498896	-5.03978251	10.06645394	5.94469704	1.56088594	11.34294312
1040	10.39000000	9.89939214	0.73748605	5.48969592	7.76810727	2.19599727	5.85092768	12.38827381	2.87144224	0.89413577	12.18264738	0.01471139	0.36611800	5.11220696	-10.47528541	-6.22923191	7.50786921	-2.09974455	-3.97504420	8.53392621	-4.46507721	10.25368737	4.91835918	2.83754954	11.08391489
1041	10.40000000	9.27842385	1.19707483	5.43457293	6.97016822	2.23187503	5.76318828	11.25588969	5.31562063	0.87106801	11.25720174	0.13424115	0.74427114	8.26548116	-13.44940081	-4.83112577	7.63649076	-2.09482928	-4.90358842	10.19662369	-5.84187120	9.16794703	5.75367581	4.09976372	10.94755772
1042	10.41000000	8.86847244	1.45731167	5.18584761	6.85861494	2.14482964	5.84683620	9.77081462	7.71807791	1.46594998	10.63692541	0.07717848	1.37896169	11.55238681	-13.60014059	-2.70919873	8.26318411	-1.44611873	-5.41652246	12.40839251	-7.29931704	8.83002959	4.58377953	1.55678313	11.09411992
1043	10.42000000	8.61462524	1.44418741	5.06125591	7.32839907	1.70529717	6.13611955	8.31567880	9.72712913	1.58683078	10.78131512	-0.06793503	1.90684011	11.72702824	-9.15083099	-0.90666813	8.62817735	-0.62606257	-5.51803230	11.16995678	-6.90542087	7.16863035	5.19231247	1.55524691	11.30765523
1044	10.43000000	8.57171819	1.18382102	5.09421041	8.12424811	0.98289741	6.23225454	7.02278875	10.57798602	1.20152618	11.29637896	-0.08444703	1.95140674	11.59062991	-5.19498451	0.30544549	9.47460182	-0.03603316	-5.17334436	8.70865790	-5.49727802	4.33651087	4.32628058	0.19619420	11.97080016
1045	10.44000000	8.70291332	0.96888734	5.30100335	8.66576618	0.19292785	6.21572631	5.80414368	9.90886840	0.63332981	11.46292462	0.22444381	1.90411803	11.51284704	-3.65069006	1.08760252	10.34630635	0.58920743	-4.71416649	8.44394097	-1.21894208	4.65556888	4.42546310	-0.09126083	11.65191471
1046	10.45000000	8.73915409	0.81655360	5.56592944	8.98859268	-0.61128077	6.15144960	4.90434226	8.76301777	-0.26660144	11.07796337	0.66877902	2.09460345	11.66390364	-2.36847546	2.29989693	10.83736447	1.85325655	-4.02747792	11.78635422	-0.22463892	17.00033066	4.76103761	0.27124354	11.63327262
1047	10.46000000	8.54347035	0.84651439	5.85155711	9.12178922	-1.44884346	6.09343170	4.33374971	8.24998172	-1.11502861	10.69127324	0.86207833	2.38271369	10.91995319	0.10446580	2.56334995	10.37831620	3.36144682	-3.06616130	25.14099935	-9.09969587	20.89766275	4.93785589	0.90439163	11.57578345
1048	10.47000000	8.49780865	0.98229009	5.97708880	9.03050341	-2.08262136	6.10151799	3.66868275	8.04558515	-1.03176641	10.78310294	0.86320177	2.40925567	9.68340083	2.73522271	2.10470730	9.03305272	3.97334502	-2.14420598	2.83032462	-13.90500479	11.53701783	5.42917200	0.78064150	11.20579916
1049	10.48000000	8.66372585	1.34920074	6.20222235	9.13510158	-2.30993717	5.99285829	3.22800246	7.63319284	0.70370349	11.03487528	0.60910260	1.83174823	8.70623365	4.08094967	2.03213768	8.17886154	3.50038115	-1.59342321	-6.75310888	-12.44170010	5.80464699	4.90296689	1.21476203	11.43619342
1050	10.49000000	8.77708378	1.53919392	6.51440783	9.19609669	-2.21489046	5.82834527	3.32302692	7.06740844	3.37920027	11.10834102	0.31211824	1.41267933	7.99688188	3.58415323	1.74820416	8.31166541	2.90743088	-1.69681740	-2.34363215	-9.94522413	5.78138444	5.17218928	1.47315908	11.25832315
1051	10.50000000	8.53741985	1.70024335	6.66165147	9.19718740	-1.54313647	5.71088435	4.15757702	7.05443992	4.46530333	10.75030187	0.28371615	1.52658726	8.05114089	1.87622639	1.61871183	8.83283926	2.50584373	-2.49396421	1.99225860	-6.80522511	8.15147859	5.18805653	1.03075645	11.04597224
1052	10.51000000	8.26997146	1.77992898	6.57431216	8.96152236	-1.07791135	5.65048783	5.34130840	6.98808995	4.33447892	10.17453622	0.12499972	1.76426227	8.78930167	-0.15663968	1.16018707	9.07707481	2.06811298	-3.33527006	3.85456260	-4.78280380	9.70707835	4.97736195	0.97328290	11.25036664
1053	10.52000000	8.26701068	1.72430829	6.38549263	8.52018622	-0.80911458	5.62792085	5.83369746	6.29542341	4.07229796	9.90090843	-0.06232073	1.89834375	9.86927392	-2.07048437	0.42463836	8.97764144	1.87974028	-3.91080413	4.03297789	-3.77048172	10.32616025	4.76333732	0.77944435	11.45625381
